<?xml version="1.0" standalone="no"?>
<!DOCTYPE svg PUBLIC "-//W3C//DTD SVG 20010904//EN"
 "http://www.w3.org/TR/2001/REC-SVG-20010904/DTD/svg10.dtd">
<svg version="1.0" xmlns="http://www.w3.org/2000/svg"
 width="50.000000pt" height="50.000000pt" viewBox="0 0 50.000000 50.000000"
 preserveAspectRatio="xMidYMid meet">

<g transform="translate(0.000000,50.000000) scale(0.100000,-0.100000)"
fill="#000000" stroke="none">
<path d="M226 484 c-31 -30 -9 -84 34 -84 24 0 50 26 50 50 0 24 -26 50 -50
50 -10 0 -26 -7 -34 -16z m59 -34 c0 -18 -6 -26 -23 -28 -13 -2 -25 3 -28 12
-10 26 4 48 28 44 17 -2 23 -10 23 -28z"/>
<path d="M152 383 c-33 -11 -47 -24 -63 -55 -19 -38 -20 -42 -4 -57 15 -15 19
-13 51 24 31 34 35 37 29 15 -4 -14 -8 -32 -10 -40 -16 -73 -12 -69 -63 -72
-43 -3 -47 -5 -47 -28 0 -23 5 -26 59 -34 57 -9 60 -9 80 17 26 33 41 25 61
-32 8 -24 15 -45 15 -46 0 -2 -54 -6 -120 -10 -126 -8 -156 -19 -130 -50 11
-13 44 -15 213 -13 178 3 201 5 211 21 8 12 8 22 0 34 -14 22 30 239 54 266 8
9 11 17 6 17 -12 0 -84 -73 -84 -85 0 -5 5 -4 12 3 23 23 24 11 4 -83 l-19
-95 -42 0 -41 0 -18 58 c-10 32 -28 66 -41 77 -18 15 -23 27 -19 43 7 23 19
29 29 12 10 -16 81 -12 95 5 18 21 -4 45 -41 45 -19 0 -30 6 -34 20 -8 27 -53
60 -79 59 -11 0 -40 -7 -64 -16z m93 -11 c6 -4 21 -22 34 -39 17 -25 30 -33
52 -33 16 0 29 -4 29 -10 0 -5 -17 -10 -38 -10 -27 0 -41 6 -50 21 -16 26 -27
17 -41 -35 -9 -36 -8 -40 18 -62 18 -15 33 -41 40 -70 19 -73 -5 -75 -28 -2
-8 23 -28 50 -52 69 -43 34 -46 47 -24 108 13 39 13 41 -5 41 -21 0 -50 -25
-68 -56 -18 -32 -24 -8 -7 26 23 45 107 76 140 52z m-70 -201 c-6 -19 -13 -22
-58 -19 -66 4 -78 28 -14 28 33 0 47 5 51 17 10 25 30 0 21 -26z m185 -131 c0
-19 -7 -20 -150 -20 -93 0 -150 4 -150 10 0 6 6 11 13 11 18 2 217 15 255 17
26 2 32 -2 32 -18z m56 9 c10 -17 -13 -36 -27 -22 -12 12 -4 33 11 33 5 0 12
-5 16 -11z m-376 -19 c0 -5 -4 -10 -10 -10 -5 0 -10 5 -10 10 0 6 5 10 10 10
6 0 10 -4 10 -10z"/>
</g>
</svg>
